<svg xmlns="http://www.w3.org/2000/svg" version="1.1" xmlns:xlink="http://www.w3.org/1999/xlink" xmlns:svgjs="http://svgjs.dev/svgjs" width="1500" height="1500" viewBox="0 0 1500 1500"><g transform="matrix(1,0,0,1,-0.21332335329316265,-0.21332335329350371)"><svg viewBox="0 0 334 334" data-background-color="#ffffff" preserveAspectRatio="xMidYMid meet" height="1500" width="1500" xmlns="http://www.w3.org/2000/svg" xmlns:xlink="http://www.w3.org/1999/xlink"><g id="tight-bounds" transform="matrix(1,0,0,1,0.04749999999998522,0.04750000000001364)"><svg viewBox="0 0 333.90454557049503 333.90454557049503" height="333.90454557049503" width="333.90454557049503"><g><svg></svg></g><g><svg viewBox="0 0 333.90454557049503 333.90454557049503" height="333.90454557049503" width="333.90454557049503"><g><path d="M0 166.952c0-92.205 74.747-166.952 166.952-166.952 92.205 0 166.952 74.747 166.953 166.952 0 92.205-74.747 166.952-166.953 166.953-92.205 0-166.952-74.747-166.952-166.953zM166.952 326.082c87.885 0 159.129-71.245 159.13-159.13 0-87.885-71.245-159.129-159.13-159.129-87.885 0-159.129 71.245-159.129 159.129 0 87.885 71.245 159.129 159.129 159.13z" data-fill-palette-color="tertiary" fill="#1d597d" stroke="transparent"></path><ellipse rx="160.27418187383762" ry="160.27418187383762" cx="166.95227278524752" cy="166.95227278524752" fill="#1d597d" stroke="transparent" stroke-width="0" fill-opacity="1" data-fill-palette-color="tertiary"></ellipse></g><g transform="matrix(1,0,0,1,75.49398295981649,71.17305217166896)"><svg viewBox="0 0 182.91657965086205 191.55844122715712" height="191.55844122715712" width="182.91657965086205"><g><svg viewBox="0 0 182.91657965086205 191.55844122715712" height="191.55844122715712" width="182.91657965086205"><g><svg viewBox="0 0 213.1584412271571 223.22907422510602" height="191.55844122715712" width="182.91657965086205"><g transform="matrix(1,0,0,1,0,122.14072495093244)"><svg viewBox="0 0 213.1584412271571 101.08834927417358" height="101.08834927417358" width="213.1584412271571"><g id="textblocktransform"><svg viewBox="0 0 213.1584412271571 101.08834927417358" height="101.08834927417358" width="213.1584412271571" id="textblock"><g><svg viewBox="0 0 213.1584412271571 101.08834927417358" height="101.08834927417358" width="213.1584412271571"><g transform="matrix(1,0,0,1,0,0)"><svg width="213.1584412271571" viewBox="3.04 -40 85.14999999999999 40.39" height="101.08834927417358" data-palette-color="#ffffff"><path d="M3.83 0L3.04 0 3.04-40 10.76-40Q13.2-40 14.77-39.37 16.34-38.74 17.13-37.32 17.93-35.9 18-33.54L18-33.54Q18.1-30.39 18.11-27.39 18.11-24.39 18-21.45L18-21.45Q17.91-19.11 17.13-17.82 16.34-16.53 14.63-15.86L14.63-15.86 18.56 0 17.74 0 13.65-16.3Q15.49-16.76 16.3-17.97 17.11-19.18 17.21-21.48L17.21-21.48Q17.34-24.49 17.33-27.43 17.32-30.38 17.21-33.51L17.21-33.51Q17.13-35.77 16.36-37.04 15.6-38.3 14.19-38.81 12.78-39.31 10.76-39.31L10.76-39.31 3.83-39.31 3.83 0ZM7 0L6.2 0 6.2-16.03 10.1-16.03Q10.4-16.03 10.69-16.03 10.99-16.03 11.26-16.04L11.26-16.04 15.26 0 14.45 0 10.66-15.35Q10.54-15.34 10.4-15.34 10.26-15.34 10.13-15.34L10.13-15.34 7-15.34 7 0ZM5.41 0L4.63 0 4.63-38.63 10.76-38.63Q12.58-38.63 13.81-38.16 15.04-37.7 15.69-36.58 16.35-35.46 16.41-33.5L16.41-33.5Q16.51-30.59 16.53-27.56 16.55-24.54 16.41-21.53L16.41-21.53Q16.32-19.34 15.44-18.25 14.56-17.16 12.65-16.84L12.65-16.84 16.91 0 16.09 0 11.85-16.75Q11.59-16.74 11.3-16.73 11.01-16.71 10.73-16.71L10.73-16.71 5.41-16.71 5.41 0ZM5.41-37.94L5.41-17.41 10.73-17.41Q13.08-17.41 14.31-18.29 15.54-19.16 15.63-21.54L15.63-21.54Q15.75-24.61 15.75-27.51 15.75-30.4 15.63-33.45L15.63-33.45Q15.53-36.05 14.29-36.99 13.06-37.94 10.76-37.94L10.76-37.94 5.41-37.94ZM10.73-18.1L6.2-18.1 6.2-37.25 10.76-37.25Q12.84-37.25 13.81-36.38 14.78-35.51 14.84-33.43L14.84-33.43Q14.91-30.3 14.93-27.34 14.94-24.39 14.84-21.55L14.84-21.55Q14.75-19.56 13.73-18.83 12.7-18.1 10.73-18.1L10.73-18.1ZM7-36.56L7-18.79 10.73-18.79Q12.34-18.79 13.16-19.39 13.99-20 14.04-21.6L14.04-21.6Q14.14-24.45 14.13-27.43 14.13-30.41 14.04-33.41L14.04-33.41Q13.99-35.26 13.14-35.91 12.29-36.56 10.76-36.56L10.76-36.56 7-36.56ZM37.02 0L36.23 0 36.23-23.04Q36.23-26.31 34.93-28.03 33.62-29.74 30.04-29.74L30.04-29.74Q26.95-29.74 25.26-28.51 23.57-27.28 23.44-23.98L23.44-23.98Q23.39-22.83 23.39-21.76 23.4-20.7 23.47-19.58L23.47-19.58 22.69-19.58Q22.61-20.83 22.6-21.85 22.59-22.88 22.64-24L22.64-24Q22.79-27.4 24.52-28.89 26.26-30.38 30.04-30.38L30.04-30.38Q32.79-30.38 34.3-29.51 35.82-28.65 36.42-27.01 37.02-25.36 37.02-23.04L37.02-23.04 37.02 0ZM28.54-1.53L28.54-1.53Q30.44-1.53 31.8-2.43 33.17-3.33 33.9-4.72 34.64-6.11 34.64-7.59L34.64-7.59 34.64-16.5Q33.09-16.03 31.5-15.45 29.92-14.88 28.84-14.34L28.84-14.34Q26.69-13.26 25.62-11.8 24.55-10.34 24.4-7.88L24.4-7.88Q24.36-7.24 24.37-6.75 24.39-6.26 24.44-5.68L24.44-5.68Q24.62-3.74 25.68-2.63 26.74-1.53 28.54-1.53ZM28.67-2.2L28.67-2.2Q27.14-2.2 26.24-3.18 25.35-4.15 25.21-5.78L25.21-5.78Q25.17-6.24 25.17-6.75 25.16-7.26 25.19-7.79L25.19-7.79Q25.3-10.13 26.28-11.44 27.26-12.75 29.12-13.71L29.12-13.71Q30.34-14.33 31.45-14.78 32.56-15.24 33.84-15.63L33.84-15.63 33.84-7.54Q33.84-6.16 33.21-4.94 32.59-3.73 31.43-2.96 30.27-2.2 28.67-2.2ZM28.75-2.81L28.75-2.81Q30.01-2.81 30.98-3.46 31.95-4.1 32.5-5.17 33.05-6.24 33.05-7.48L33.05-7.48 33.05-14.75Q32.12-14.4 31.26-14.01 30.4-13.61 29.45-13.11L29.45-13.11Q27.62-12.15 26.84-10.95 26.05-9.75 25.97-7.75L25.97-7.75Q25.96-7.26 25.97-6.78 25.97-6.29 26.01-5.84L26.01-5.84Q26.11-4.5 26.82-3.66 27.54-2.81 28.75-2.81ZM28 0.35L28 0.35Q25.45 0.35 23.87-1.18 22.29-2.7 22.06-5.53L22.06-5.53Q22.01-6.18 22-6.78 22-7.39 22.02-8.06L22.02-8.06Q22.19-10.93 23.54-12.83 24.9-14.73 27.94-16.19L27.94-16.19Q28.67-16.55 29.43-16.88 30.19-17.2 31.07-17.54 31.96-17.88 33.06-18.24L33.06-18.24 33.06-23.04Q33.06-24.95 32.42-26.08 31.79-27.2 30.04-27.2L30.04-27.2Q28.3-27.2 27.48-26.36 26.66-25.51 26.59-23.76L26.59-23.76Q26.56-23.1 26.56-21.94 26.56-20.79 26.61-19.58L26.61-19.58 25.82-19.58Q25.77-20.7 25.77-21.87 25.77-23.04 25.8-23.8L25.8-23.8Q25.89-25.99 26.94-26.91 28-27.84 30.04-27.84L30.04-27.84Q32.31-27.84 33.09-26.53 33.86-25.21 33.86-23.04L33.86-23.04 33.86-17.7Q32.3-17.19 30.81-16.63 29.32-16.07 28.23-15.58L28.23-15.58Q25.61-14.34 24.27-12.53 22.92-10.73 22.82-8.01L22.82-8.01Q22.8-7.4 22.8-6.81 22.8-6.21 22.85-5.59L22.85-5.59Q23.05-3.1 24.44-1.69 25.82-0.28 28.17-0.28L28.17-0.28Q30.39-0.28 31.81-1.23 33.23-2.18 34.15-3.8L34.15-3.8 34.32-3.8 33.91-1.06 33.91 0 33.14 0 33.12-0.51 33.65-2.29 33.48-2.29Q32.48-0.9 31.15-0.28 29.81 0.35 28 0.35ZM35.44 0L34.65 0 34.65-2.24 34.85-5.63 34.66-5.63Q33.91-3.48 32.31-2.19 30.71-0.9 28.34-0.9L28.34-0.9Q26.34-0.9 25.08-2.15 23.82-3.4 23.64-5.63L23.64-5.63Q23.6-6.24 23.59-6.78 23.59-7.33 23.61-7.96L23.61-7.96Q23.74-10.58 24.89-12.18 26.05-13.78 28.55-14.96L28.55-14.96Q29.29-15.31 30.3-15.71 31.31-16.1 32.44-16.48 33.56-16.86 34.66-17.18L34.66-17.18 34.66-23.04Q34.66-25.54 33.72-27 32.79-28.46 30.04-28.46L30.04-28.46Q27.55-28.46 26.32-27.4 25.1-26.34 25-23.83L25-23.83Q24.97-23.08 24.97-21.91 24.97-20.75 25.05-19.58L25.05-19.58 24.26-19.58Q24.2-20.68 24.19-21.85 24.17-23.03 24.21-23.84L24.21-23.84Q24.32-26.63 25.69-27.87 27.06-29.11 30.04-29.11L30.04-29.11Q33.15-29.11 34.29-27.54 35.44-25.98 35.44-23.04L35.44-23.04 35.44 0ZM57.96 0L57.17 0 57.17-23.24Q57.17-25.33 56.68-26.77 56.18-28.21 54.96-28.96 53.75-29.71 51.57-29.71L51.57-29.71Q49.38-29.71 47.81-28.79 46.23-27.88 45.33-26.23L45.33-26.23 45.16-26.23 45.55-32.29 45.55-40 46.35-40 46.35-33.26 45.77-27.74 45.93-27.74Q46.96-29.14 48.46-29.76 49.96-30.39 51.77-30.39L51.77-30.39Q54.18-30.39 55.53-29.57 56.87-28.75 57.41-27.18 57.96-25.61 57.96-23.35L57.96-23.35 57.96 0ZM43.23 0L42.43 0 42.43-40 43.23-40 43.23 0ZM46.4 0L45.61 0 45.61-22.5Q45.61-23.88 46.28-25.04 46.95-26.21 48.15-26.93 49.36-27.64 50.96-27.64L50.96-27.64Q53.22-27.64 54.01-26.44 54.81-25.24 54.81-23.03L54.81-23.03 54.81 0 54.02 0 54.02-22.99Q54.02-24.85 53.38-25.91 52.75-26.98 50.86-26.98L50.86-26.98Q49.61-26.98 48.6-26.39 47.6-25.81 47.01-24.81 46.43-23.81 46.43-22.55L46.43-22.55 46.4 0ZM44.83 0L44.02 0 44.02-40 44.81-40 44.81-31.29 44.63-24.41 44.83-24.41Q45.57-26.58 47.26-27.81 48.95-29.04 51.35-29.03L51.35-29.03Q54.31-29.01 55.35-27.51 56.38-26 56.38-23.2L56.38-23.2 56.38 0 55.6 0 55.6-23.13Q55.6-25.65 54.66-27.01 53.73-28.36 51.13-28.36L51.13-28.36Q49.2-28.36 47.78-27.51 46.37-26.65 45.6-25.31 44.83-23.96 44.83-22.46L44.83-22.46 44.83 0ZM69.34 0.39L69.34 0.39Q67.71 0.39 66.59-0.04 65.48-0.46 64.81-1.19 64.13-1.93 63.77-2.84 63.42-3.75 63.29-4.74 63.17-5.73 63.17-6.65L63.17-6.65 63.17-30 63.96-30 63.96-6.76Q63.96-5.66 64.14-4.53 64.33-3.39 64.91-2.43 65.48-1.46 66.59-0.88 67.69-0.29 69.56-0.29L69.56-0.29Q71.79-0.29 73.35-1.23 74.91-2.18 75.78-3.78L75.78-3.78 75.97-3.78 75.58-1.03 75.58 0 74.79 0 74.79-0.48 75.26-2.26 75.09-2.26Q74.07-0.85 72.61-0.23 71.16 0.39 69.34 0.39ZM78.68 0L77.89 0 77.89-30 78.68-30 78.68 0ZM70.16-2.36L70.16-2.36Q68.84-2.36 68.07-2.8 67.31-3.24 66.92-3.94 66.54-4.64 66.43-5.44 66.32-6.25 66.32-6.98L66.32-6.98 66.32-30 67.11-30 67.11-7.01Q67.11-6 67.33-5.09 67.56-4.17 68.24-3.6 68.92-3.03 70.26-3.03L70.26-3.03Q71.52-3.03 72.52-3.61 73.52-4.19 74.11-5.19 74.69-6.2 74.69-7.45L74.69-7.45 74.69-30 75.52-30 75.52-7.5Q75.52-6.14 74.85-4.96 74.18-3.79 72.97-3.08 71.77-2.36 70.16-2.36ZM69.76-0.98L69.76-0.98Q67.07-0.99 65.91-2.44 64.74-3.89 64.74-6.8L64.74-6.8 64.74-30 65.53-30 65.53-6.88Q65.53-4.36 66.52-3 67.51-1.64 69.98-1.64L69.98-1.64Q71.92-1.64 73.33-2.49 74.74-3.35 75.5-4.7 76.26-6.05 76.26-7.54L76.26-7.54 76.26-30 77.09-30 77.09 0 76.32 0 76.32-2.2 76.47-5.59 76.27-5.59Q75.53-3.41 73.84-2.19 72.14-0.96 69.76-0.98ZM88.19 0L87.4 0 87.4-40 88.19-40 88.19 0ZM85.03 0L84.23 0 84.23-40 85.03-40 85.03 0ZM86.6 0L85.82 0 85.82-40 86.6-40 86.6 0Z" opacity="1" transform="matrix(1,0,0,1,0,0)" fill="#ffffff" class="wordmark-text-0" data-fill-palette-color="quaternary" id="text-0"></path></svg></g></svg></g></svg></g></svg></g><g transform="matrix(1,0,0,1,40.713262274387006,0)"><svg viewBox="0 0 131.7319166783831 98.27619180768264" height="98.27619180768264" width="131.7319166783831"><g><svg xmlns:dc="http://purl.org/dc/elements/1.1/" xmlns:cc="http://creativecommons.org/ns#" xmlns:rdf="http://www.w3.org/1999/02/22-rdf-syntax-ns#" xmlns:svg="http://www.w3.org/2000/svg" xmlns="http://www.w3.org/2000/svg" xmlns:sodipodi="http://sodipodi.sourceforge.net/DTD/sodipodi-0.dtd" xmlns:inkscape="http://www.inkscape.org/namespaces/inkscape" preserveAspectRatio="xMidYMid" viewBox="0 0 63 47" version="1.1" x="0" y="0" height="98.27619180768264" width="131.7319166783831" class="icon-icon-0" data-fill-palette-color="quaternary" id="icon-0"><path d="M9.5 0A9.5 9.5 0 0 0 0 9.5V37.5A9.5 9.5 0 0 0 9.5 47H53.5A9.5 9.5 0 0 0 63 37.5V9.5A9.5 9.5 0 0 0 53.5 0zM9.5 3H53.5A6.5 6.5 0 0 1 60 9.5V14H3V9.5A6.5 6.5 0 0 1 9.5 3M12.75 6A2.853 2.853 0 0 0 9.906 8.844C9.906 10.407 11.187 11.656 12.75 11.656S15.594 10.406 15.594 8.844A2.853 2.853 0 0 0 12.75 6M22.938 6C21.375 6 20.125 7.28 20.125 8.844A2.8 2.8 0 0 0 22.938 11.656C24.5 11.656 25.78 10.406 25.78 8.844A2.853 2.853 0 0 0 22.938 6M32 6A2.853 2.853 0 0 0 29.156 8.844C29.156 10.407 30.437 11.656 32 11.656A2.8 2.8 0 0 0 34.813 8.844C34.813 7.28 33.562 6 32 6M3 17H60V37.5A6.5 6.5 0 0 1 53.5 44H9.5A6.5 6.5 0 0 1 3 37.5zM17.969 23C17.523 23.05 17.122 23.294 16.875 23.688L8.656 36.688A1.53 1.53 0 0 0 9.125 38.78C9.373 38.94 9.632 39 9.906 39 10.403 39 10.902 38.764 11.187 38.313L17.345 28.563 18.625 35.78C18.707 36.236 18.997 36.628 19.406 36.844A1.5 1.5 0 0 0 20.72 36.875L25.625 34.688 31.438 38.718C31.787 38.965 32.21 39.065 32.624 38.969 33.04 38.87 33.389 38.595 33.594 38.219L39.719 26.939 51.594 38.563C52.184 39.14 53.139 39.154 53.719 38.563 54.299 37.97 54.312 37.017 53.719 36.437L40.406 23.408A1.54 1.54 0 0 0 39.125 23C38.66 23.07 38.256 23.336 38.031 23.75L31.75 35.313 26.625 31.75A1.5 1.5 0 0 0 25.156 31.594L21.25 33.375 19.594 24.219C19.484 23.609 19.014 23.119 18.406 23A1.4 1.4 0 0 0 17.97 23" fill="#ffffff" fill-rule="evenodd" data-fill-palette-color="quaternary"></path></svg></g></svg></g><g></g></svg></g></svg></g></svg></g></svg></g><defs></defs></svg><rect width="333.90454557049503" height="333.90454557049503" fill="none" stroke="none" visibility="hidden"></rect></g></svg></g></svg>